<mxfile host="app.diagrams.net" modified="2021-12-28T15:39:49.318Z" agent="5.0 (Windows NT 10.0; Win64; x64) AppleWebKit/537.36 (KHTML, like Gecko) Chrome/96.0.4664.110 Safari/537.36" etag="cZipTHqNCYqvGwQ9qavl" version="15.2.7" type="github">
  <diagram id="yHEFBjre0bWm8jEzyCDF" name="Page-1">
    <mxGraphModel dx="1727" dy="2080" grid="1" gridSize="10" guides="1" tooltips="1" connect="1" arrows="1" fold="1" page="1" pageScale="1" pageWidth="850" pageHeight="1100" math="0" shadow="0">
      <root>
        <mxCell id="0" />
        <mxCell id="1" parent="0" />
        <mxCell id="S4OQC5h1mxq3_K8Vj7pI-27" value="&lt;div&gt;Planted: 12/27/21&lt;/div&gt;" style="group" parent="1" vertex="1" connectable="0">
          <mxGeometry x="40" y="160" width="1460" height="240" as="geometry" />
        </mxCell>
        <mxCell id="S4OQC5h1mxq3_K8Vj7pI-14" value="Vegetable 1" style="swimlane;childLayout=stackLayout;resizeParent=1;resizeParentMax=0;startSize=20;horizontal=0;horizontalStack=1;" parent="S4OQC5h1mxq3_K8Vj7pI-27" vertex="1">
          <mxGeometry width="380" height="240" as="geometry">
            <mxRectangle width="30" height="90" as="alternateBounds" />
          </mxGeometry>
        </mxCell>
        <mxCell id="S4OQC5h1mxq3_K8Vj7pI-15" value="Kale" style="swimlane;startSize=20;" parent="S4OQC5h1mxq3_K8Vj7pI-14" vertex="1">
          <mxGeometry x="20" width="120" height="240" as="geometry" />
        </mxCell>
        <mxCell id="S4OQC5h1mxq3_K8Vj7pI-28" value="&lt;div&gt;Planted: 12/27/21&lt;/div&gt;" style="text;html=1;align=center;verticalAlign=middle;resizable=0;points=[];autosize=1;strokeColor=none;fillColor=none;" parent="S4OQC5h1mxq3_K8Vj7pI-15" vertex="1">
          <mxGeometry x="5" y="100" width="110" height="20" as="geometry" />
        </mxCell>
        <mxCell id="S4OQC5h1mxq3_K8Vj7pI-16" value="Kale" style="swimlane;startSize=20;" parent="S4OQC5h1mxq3_K8Vj7pI-14" vertex="1">
          <mxGeometry x="140" width="120" height="240" as="geometry" />
        </mxCell>
        <mxCell id="S4OQC5h1mxq3_K8Vj7pI-33" value="&lt;div&gt;Planted: 12/27/21&lt;/div&gt;" style="text;html=1;align=center;verticalAlign=middle;resizable=0;points=[];autosize=1;strokeColor=none;fillColor=none;" parent="S4OQC5h1mxq3_K8Vj7pI-16" vertex="1">
          <mxGeometry x="5" y="100" width="110" height="20" as="geometry" />
        </mxCell>
        <mxCell id="S4OQC5h1mxq3_K8Vj7pI-17" value="Mustard Greens" style="swimlane;startSize=20;" parent="S4OQC5h1mxq3_K8Vj7pI-14" vertex="1">
          <mxGeometry x="260" width="120" height="240" as="geometry" />
        </mxCell>
        <mxCell id="S4OQC5h1mxq3_K8Vj7pI-34" value="&lt;div&gt;&lt;div&gt;Planted: 12/27/21&lt;/div&gt;&lt;/div&gt;" style="text;html=1;align=center;verticalAlign=middle;resizable=0;points=[];autosize=1;strokeColor=none;fillColor=none;" parent="S4OQC5h1mxq3_K8Vj7pI-17" vertex="1">
          <mxGeometry x="10" y="100.00285714285715" width="110" height="20" as="geometry" />
        </mxCell>
        <mxCell id="S4OQC5h1mxq3_K8Vj7pI-18" value="Mustard Greens" style="swimlane;startSize=20;" parent="S4OQC5h1mxq3_K8Vj7pI-27" vertex="1">
          <mxGeometry x="380" width="120" height="240" as="geometry" />
        </mxCell>
        <mxCell id="S4OQC5h1mxq3_K8Vj7pI-35" value="&lt;div&gt;&lt;div&gt;Planted: 12/27/21&lt;/div&gt;&lt;/div&gt;" style="text;html=1;align=center;verticalAlign=middle;resizable=0;points=[];autosize=1;strokeColor=none;fillColor=none;" parent="S4OQC5h1mxq3_K8Vj7pI-18" vertex="1">
          <mxGeometry x="5" y="100.00285714285715" width="110" height="20" as="geometry" />
        </mxCell>
        <mxCell id="S4OQC5h1mxq3_K8Vj7pI-19" value="Radish" style="swimlane;startSize=20;" parent="S4OQC5h1mxq3_K8Vj7pI-27" vertex="1">
          <mxGeometry x="500" width="120" height="240" as="geometry" />
        </mxCell>
        <mxCell id="S4OQC5h1mxq3_K8Vj7pI-37" value="&lt;div&gt;&lt;div&gt;Planted: 12/27/21&lt;/div&gt;&lt;/div&gt;" style="text;html=1;align=center;verticalAlign=middle;resizable=0;points=[];autosize=1;strokeColor=none;fillColor=none;" parent="S4OQC5h1mxq3_K8Vj7pI-19" vertex="1">
          <mxGeometry x="5" y="100.00285714285715" width="110" height="20" as="geometry" />
        </mxCell>
        <mxCell id="S4OQC5h1mxq3_K8Vj7pI-20" value="Radish" style="swimlane;startSize=20;" parent="S4OQC5h1mxq3_K8Vj7pI-27" vertex="1">
          <mxGeometry x="620" width="120" height="240" as="geometry" />
        </mxCell>
        <mxCell id="S4OQC5h1mxq3_K8Vj7pI-38" value="&lt;div&gt;&lt;div&gt;Planted: 12/27/21&lt;/div&gt;&lt;/div&gt;" style="text;html=1;align=center;verticalAlign=middle;resizable=0;points=[];autosize=1;strokeColor=none;fillColor=none;" parent="S4OQC5h1mxq3_K8Vj7pI-20" vertex="1">
          <mxGeometry x="5" y="100.00285714285715" width="110" height="20" as="geometry" />
        </mxCell>
        <mxCell id="S4OQC5h1mxq3_K8Vj7pI-21" value="Jalepeno" style="swimlane;startSize=20;" parent="S4OQC5h1mxq3_K8Vj7pI-27" vertex="1">
          <mxGeometry x="740" width="120" height="240" as="geometry" />
        </mxCell>
        <mxCell id="S4OQC5h1mxq3_K8Vj7pI-40" value="&lt;div&gt;Planted: 12/27/21&lt;/div&gt;" style="text;html=1;align=center;verticalAlign=middle;resizable=0;points=[];autosize=1;strokeColor=none;fillColor=none;" parent="S4OQC5h1mxq3_K8Vj7pI-21" vertex="1">
          <mxGeometry x="5" y="100" width="110" height="20" as="geometry" />
        </mxCell>
        <mxCell id="S4OQC5h1mxq3_K8Vj7pI-22" value="Jalepeno" style="swimlane;startSize=20;" parent="S4OQC5h1mxq3_K8Vj7pI-27" vertex="1">
          <mxGeometry x="860" width="120" height="240" as="geometry" />
        </mxCell>
        <mxCell id="S4OQC5h1mxq3_K8Vj7pI-41" value="&lt;div&gt;Planted: 12/27/21&lt;/div&gt;" style="text;html=1;align=center;verticalAlign=middle;resizable=0;points=[];autosize=1;strokeColor=none;fillColor=none;" parent="S4OQC5h1mxq3_K8Vj7pI-22" vertex="1">
          <mxGeometry x="5" y="100" width="110" height="20" as="geometry" />
        </mxCell>
        <mxCell id="S4OQC5h1mxq3_K8Vj7pI-23" value="Salad Mix" style="swimlane;startSize=20;" parent="S4OQC5h1mxq3_K8Vj7pI-27" vertex="1">
          <mxGeometry x="980" width="120" height="240" as="geometry" />
        </mxCell>
        <mxCell id="S4OQC5h1mxq3_K8Vj7pI-42" value="&lt;div&gt;Planted: 12/27/21&lt;/div&gt;" style="text;html=1;align=center;verticalAlign=middle;resizable=0;points=[];autosize=1;strokeColor=none;fillColor=none;" parent="S4OQC5h1mxq3_K8Vj7pI-23" vertex="1">
          <mxGeometry x="5" y="100" width="110" height="20" as="geometry" />
        </mxCell>
        <mxCell id="S4OQC5h1mxq3_K8Vj7pI-24" value="Salad Mix" style="swimlane;startSize=20;" parent="S4OQC5h1mxq3_K8Vj7pI-27" vertex="1">
          <mxGeometry x="1100" width="120" height="240" as="geometry" />
        </mxCell>
        <mxCell id="S4OQC5h1mxq3_K8Vj7pI-43" value="&lt;div&gt;Planted: 12/27/21&lt;/div&gt;" style="text;html=1;align=center;verticalAlign=middle;resizable=0;points=[];autosize=1;strokeColor=none;fillColor=none;" parent="S4OQC5h1mxq3_K8Vj7pI-24" vertex="1">
          <mxGeometry x="5" y="100" width="110" height="20" as="geometry" />
        </mxCell>
        <mxCell id="S4OQC5h1mxq3_K8Vj7pI-25" value="Chards" style="swimlane;startSize=20;" parent="S4OQC5h1mxq3_K8Vj7pI-27" vertex="1">
          <mxGeometry x="1220" width="120" height="240" as="geometry" />
        </mxCell>
        <mxCell id="S4OQC5h1mxq3_K8Vj7pI-44" value="&lt;div&gt;&lt;div&gt;Planted: 12/27/21&lt;/div&gt;&lt;/div&gt;" style="text;html=1;align=center;verticalAlign=middle;resizable=0;points=[];autosize=1;strokeColor=none;fillColor=none;" parent="S4OQC5h1mxq3_K8Vj7pI-25" vertex="1">
          <mxGeometry x="5" y="100" width="110" height="20" as="geometry" />
        </mxCell>
        <mxCell id="S4OQC5h1mxq3_K8Vj7pI-26" value="Chards" style="swimlane;startSize=20;" parent="S4OQC5h1mxq3_K8Vj7pI-27" vertex="1">
          <mxGeometry x="1340" width="120" height="240" as="geometry" />
        </mxCell>
        <mxCell id="S4OQC5h1mxq3_K8Vj7pI-45" value="&lt;div&gt;&lt;div&gt;Planted: 12/27/21&lt;/div&gt;&lt;/div&gt;" style="text;html=1;align=center;verticalAlign=middle;resizable=0;points=[];autosize=1;strokeColor=none;fillColor=none;" parent="S4OQC5h1mxq3_K8Vj7pI-26" vertex="1">
          <mxGeometry x="5" y="100" width="110" height="20" as="geometry" />
        </mxCell>
        <mxCell id="-F5KsbFZE4-UDRd3xcNL-1" value="&lt;div&gt;Cayenne Peppers&lt;/div&gt;&lt;div&gt;Planted 12/27/21&lt;br&gt;&lt;/div&gt;" style="ellipse;whiteSpace=wrap;html=1;aspect=fixed;" parent="1" vertex="1">
          <mxGeometry x="40" y="580" width="110" height="110" as="geometry" />
        </mxCell>
        <mxCell id="-F5KsbFZE4-UDRd3xcNL-5" value="&lt;div&gt;Cayenne Peppers&lt;/div&gt;&lt;div&gt;Planted 12/27/21&lt;br&gt;&lt;/div&gt;" style="ellipse;whiteSpace=wrap;html=1;aspect=fixed;" parent="1" vertex="1">
          <mxGeometry x="180" y="580" width="110" height="110" as="geometry" />
        </mxCell>
        <mxCell id="-F5KsbFZE4-UDRd3xcNL-6" value="&lt;div&gt;Cayenne Peppers&lt;/div&gt;&lt;div&gt;Planted 12/27/21&lt;br&gt;&lt;/div&gt;" style="ellipse;whiteSpace=wrap;html=1;aspect=fixed;" parent="1" vertex="1">
          <mxGeometry x="320" y="580" width="110" height="110" as="geometry" />
        </mxCell>
        <mxCell id="-F5KsbFZE4-UDRd3xcNL-7" value="&lt;div&gt;Cayenne Peppers&lt;/div&gt;&lt;div&gt;Planted 12/27/21&lt;br&gt;&lt;/div&gt;" style="ellipse;whiteSpace=wrap;html=1;aspect=fixed;" parent="1" vertex="1">
          <mxGeometry x="110" y="700" width="110" height="110" as="geometry" />
        </mxCell>
        <mxCell id="-F5KsbFZE4-UDRd3xcNL-8" value="&lt;div&gt;Cayenne Peppers&lt;/div&gt;&lt;div&gt;Planted 12/27/21&lt;br&gt;&lt;/div&gt;" style="ellipse;whiteSpace=wrap;html=1;aspect=fixed;" parent="1" vertex="1">
          <mxGeometry x="255" y="700" width="110" height="110" as="geometry" />
        </mxCell>
        <mxCell id="OYTOpu2KcdMAOw4axOjP-1" value="Cayenne Pepper Pots&lt;br&gt;&lt;br&gt;&lt;a href=&quot;https://www.gardenguides.com/68724-grow-cayenne-peppers-indoors.html&quot;&gt;Guide&lt;/a&gt;" style="text;html=1;strokeColor=none;fillColor=none;align=center;verticalAlign=middle;whiteSpace=wrap;rounded=0;" vertex="1" parent="1">
          <mxGeometry x="167.5" y="460" width="135" height="100" as="geometry" />
        </mxCell>
        <mxCell id="OYTOpu2KcdMAOw4axOjP-2" value="Seeds&lt;br&gt;&lt;br&gt;Places to Buy:&lt;br&gt;&lt;a href=&quot;https://www.trueleafmarket.com/&quot;&gt;True Leaf Market&lt;/a&gt;&lt;br&gt;" style="rounded=1;whiteSpace=wrap;html=1;" vertex="1" parent="1">
          <mxGeometry x="90" y="-420" width="390" height="400" as="geometry" />
        </mxCell>
      </root>
    </mxGraphModel>
  </diagram>
</mxfile>
